<svg xmlns="http://www.w3.org/2000/svg" xmlns:xlink="http://www.w3.org/1999/xlink" xmlns:svgjs="http://svgjs.com/svgjs" width="512" height="512" x="0" y="0" viewBox="0 0 512 512" style="enable-background:new 0 0 512 512" xml:space="preserve" class=""><g><g xmlns="http://www.w3.org/2000/svg"><path d="m412 8.787v91.213h91.213z" fill="#25aae1" data-original="#000000" class=""></path><path d="m250 252v-35c0-19.299-15.701-35-35-35h-180c-19.299 0-35 15.701-35 35v35z" fill="#25aae1" data-original="#000000" class=""></path><path d="m0 282v195c0 19.299 15.701 35 35 35h180c19.299 0 35-15.701 35-35v-195zm65 187.5c-8.284 0-15-6.716-15-15s6.716-15 15-15 15 6.716 15 15-6.716 15-15 15zm0-55c-8.284 0-15-6.716-15-15s6.716-15 15-15 15 6.716 15 15-6.716 15-15 15zm0-60c-8.284 0-15-6.716-15-15s6.716-15 15-15 15 6.716 15 15-6.716 15-15 15zm60 115c-8.284 0-15-6.716-15-15s6.716-15 15-15 15 6.716 15 15-6.716 15-15 15zm0-55c-8.284 0-15-6.716-15-15s6.716-15 15-15 15 6.716 15 15-6.716 15-15 15zm0-60c-8.284 0-15-6.716-15-15s6.716-15 15-15 15 6.716 15 15-6.716 15-15 15zm60 115c-8.284 0-15-6.716-15-15s6.716-15 15-15 15 6.716 15 15-6.716 15-15 15zm0-55c-8.284 0-15-6.716-15-15s6.716-15 15-15 15 6.716 15 15-6.716 15-15 15zm0-60c-8.284 0-15-6.716-15-15s6.716-15 15-15 15 6.716 15 15-6.716 15-15 15z" fill="#25aae1" data-original="#000000" class=""></path><g><path d="m397 130c-8.284 0-15-6.716-15-15v-115h-245c-8.284 0-15 6.716-15 15v137h93c35.841 0 65 29.159 65 65v260c0 12.881-3.782 24.888-10.271 35h227.271c8.284 0 15-6.716 15-15v-367zm-200-85h120c8.284 0 15 6.716 15 15s-6.716 15-15 15h-120c-8.284 0-15-6.716-15-15s6.716-15 15-15zm0 90c-8.284 0-15-6.716-15-15s6.716-15 15-15h120c8.284 0 15 6.716 15 15s-6.716 15-15 15zm244.099 231.821c-2.482 14.767-9.911 28.469-20.918 38.583-8.548 7.853-18.703 13.134-29.886 15.641v13.955c0 8.284-6.716 15-15 15s-15-6.716-15-15v-12.622c-14.409-1-25.93-4.507-42.55-15.379-6.933-4.535-8.876-13.832-4.341-20.764 4.534-6.934 13.831-8.876 20.765-4.341 10.464 6.846 16.833 9.461 26.126 10.384v-76.18c-11.419-5.149-19.833-10.06-26.669-15.422-13.595-10.663-19.79-29.224-16.169-48.441 3.96-21.013 18.565-37.725 38.116-43.614 1.599-.482 3.167-.895 4.722-1.278v-12.343c0-8.284 6.716-15 15-15s15 6.716 15 15v10.603c17.004 2.477 28.957 10.694 34.633 17.21 5.441 6.247 4.789 15.722-1.458 21.163-6.224 5.422-15.657 4.794-21.108-1.395-.282-.288-4.26-4.22-12.066-6.349v59.739c3.521 1.32 7.045 2.592 10.496 3.812 15.251 5.391 27.039 15.045 34.089 27.917 6.312 11.528 8.521 25.422 6.218 39.121z" fill="#25aae1" data-original="#000000" class=""></path><path d="m346.938 257.792c-1.516 8.044.525 15.612 5.201 19.28 2.374 1.862 5.136 3.665 8.155 5.416v-43.545c-7.915 4.078-12.081 12.084-13.356 18.849z" fill="#25aae1" data-original="#000000" class=""></path><path d="m390.793 328.067c-.168-.059-.331-.118-.498-.177v61.701c12.189-5.39 19.394-16.885 21.22-27.744.984-5.858 2.4-25.606-20.722-33.78z" fill="#25aae1" data-original="#000000" class=""></path></g></g></g></svg>